<svg width="202" height="52" fill="none" xmlns="http://www.w3.org/2000/svg"><path d="M76.936 24.337c0-.31-.029-.586-.086-.83a1.564 1.564 0 00-.366-.684c-.18-.22-.44-.431-.781-.634a9.524 9.524 0 00-1.343-.648 16.36 16.36 0 01-1.917-.866 7.482 7.482 0 01-1.599-1.148 5.42 5.42 0 01-1.098-1.538c-.269-.586-.403-1.265-.403-2.038 0-.74.138-1.416.415-2.027a4.482 4.482 0 011.16-1.574 5.444 5.444 0 011.782-1.001 6.818 6.818 0 012.282-.367c.855 0 1.624.139 2.308.416a4.93 4.93 0 011.757 1.135c.489.48.863 1.058 1.123 1.733.26.667.391 1.404.391 2.21h-3.577c0-.375-.04-.717-.122-1.026a2.04 2.04 0 00-.366-.805 1.601 1.601 0 00-.635-.525c-.26-.13-.573-.196-.94-.196-.341 0-.638.053-.89.159a1.744 1.744 0 00-.977 1.086 2.595 2.595 0 00-.122.806c0 .293.06.558.183.794.13.236.309.455.537.659.236.203.517.394.842.573.334.18.7.354 1.099.525.83.302 1.554.635 2.173 1.001a6.505 6.505 0 011.55 1.245c.415.464.724.99.928 1.575.203.578.305 1.233.305 1.965 0 .782-.13 1.478-.39 2.088a4.147 4.147 0 01-1.1 1.55c-.471.415-1.045.737-1.72.965-.676.22-1.437.33-2.283.33a7.636 7.636 0 01-2.259-.343 5.85 5.85 0 01-1.965-1.074 5.422 5.422 0 01-1.404-1.819c-.35-.732-.525-1.603-.525-2.612h3.601c0 .537.053.993.16 1.367.105.375.264.68.475.916.22.228.488.394.806.5a3.79 3.79 0 001.11.147c.342 0 .631-.05.867-.147.245-.106.44-.244.586-.415.155-.179.265-.39.33-.635a3.07 3.07 0 00.098-.793zm9.07-8.545l.097 1.22a3.84 3.84 0 011.306-1.074c.513-.26 1.099-.39 1.758-.39.61 0 1.156.142 1.636.427.488.285.875.737 1.16 1.355a3.921 3.921 0 011.33-1.306c.537-.318 1.172-.476 1.904-.476.537 0 1.022.09 1.453.268.44.18.814.468 1.123.867.31.399.55.92.72 1.563.171.643.257 1.428.257 2.356V29h-3.455v-8.41c0-.44-.033-.798-.098-1.075-.057-.277-.146-.492-.268-.647a.903.903 0 00-.44-.33 1.639 1.639 0 00-.586-.097c-.342 0-.63.106-.866.317-.236.212-.428.5-.574.867.008.09.012.183.012.28.008.098.012.196.012.294V29h-3.454v-8.386c0-.44-.033-.798-.098-1.074-.057-.285-.146-.51-.269-.672a.836.836 0 00-.439-.33 1.639 1.639 0 00-.586-.097c-.317 0-.594.085-.83.256a2.138 2.138 0 00-.586.708V29h-3.454V15.792h3.234zM107.586 29a2.995 2.995 0 01-.17-.464 31.564 31.564 0 01-.123-.561c-.26.358-.598.659-1.013.903-.407.244-.907.366-1.501.366a4.07 4.07 0 01-1.514-.28 3.722 3.722 0 01-1.221-.794 3.842 3.842 0 01-.817-1.233 4.356 4.356 0 01-.293-1.636c0-.667.105-1.27.317-1.806.22-.546.545-1.005.977-1.38.439-.382.984-.675 1.635-.879.659-.203 1.433-.305 2.32-.305h.94V19.87c0-.594-.102-1.013-.306-1.257-.203-.244-.5-.366-.891-.366-.447 0-.777.134-.989.402-.203.26-.305.631-.305 1.111h-3.454c0-.578.11-1.119.329-1.623a3.97 3.97 0 01.977-1.343 4.655 4.655 0 011.526-.903c.594-.228 1.265-.342 2.014-.342.659 0 1.265.085 1.819.256a3.753 3.753 0 011.44.781c.407.35.724.802.952 1.355.228.546.342 1.205.342 1.978v5.86c0 .382.008.724.025 1.025.024.293.057.561.097.805.041.236.09.452.147.647.065.188.138.367.219.538V29h-3.479zm-2.038-2.466c.382 0 .708-.077.976-.232.269-.154.468-.337.599-.55v-2.746h-.818c-.326 0-.607.053-.843.159a1.707 1.707 0 00-.598.44 1.997 1.997 0 00-.354.659c-.073.252-.11.52-.11.805 0 .48.098.847.293 1.099.204.244.489.366.855.366zm14.05-7.41l-.574-.06a5.277 5.277 0 00-.573-.037c-.497 0-.9.106-1.209.317-.309.212-.545.521-.708.928V29h-3.467V15.792h3.26l.097 1.428c.261-.529.578-.94.952-1.233.383-.293.818-.44 1.307-.44.154 0 .321.017.5.05.187.024.338.06.452.11l-.037 3.418zm6.409-6.58v3.248h1.77v2.6h-1.77v6.555c0 .277.016.505.049.684.04.179.101.321.183.427a.733.733 0 00.329.208c.131.032.289.049.476.049.171 0 .326-.009.464-.025a2.37 2.37 0 00.354-.061l-.024 2.686a5.116 5.116 0 01-.842.232 5.09 5.09 0 01-1.062.097c-.513 0-.977-.073-1.392-.22a2.642 2.642 0 01-1.074-.671c-.293-.317-.521-.724-.684-1.22-.154-.497-.232-1.095-.232-1.795v-6.946h-1.526v-2.6h1.526v-3.247h3.455zM135.615 29V11.227h4.699c1.026 0 1.958.17 2.796.512a5.798 5.798 0 012.161 1.465c.602.635 1.066 1.42 1.391 2.356.334.928.501 1.99.501 3.186v2.759c0 1.196-.163 2.258-.489 3.186-.325.928-.789 1.713-1.391 2.356a5.973 5.973 0 01-2.173 1.453c-.846.333-1.791.5-2.832.5h-4.663zm3.589-14.783v11.804h1.074c.635 0 1.164-.08 1.587-.244.423-.17.761-.44 1.013-.805.252-.367.431-.835.537-1.404.106-.57.159-1.258.159-2.063v-2.783c0-.814-.053-1.506-.159-2.076-.106-.57-.285-1.033-.537-1.391a2.154 2.154 0 00-1.013-.781c-.415-.171-.932-.257-1.551-.257h-1.11zm15.71 15.027c-.903 0-1.705-.138-2.405-.415a4.735 4.735 0 01-1.77-1.196c-.48-.521-.846-1.156-1.098-1.904-.245-.757-.367-1.616-.367-2.576v-1.087c0-1.074.118-2.014.354-2.82.245-.813.59-1.493 1.038-2.038a4.305 4.305 0 011.66-1.245c.659-.277 1.404-.415 2.234-.415 1.676 0 2.934.541 3.772 1.623.838 1.083 1.257 2.686 1.257 4.81v1.575h-6.872c.024.529.093.972.207 1.33.122.358.285.647.489.867.203.22.447.378.732.476.293.098.623.146.989.146.61 0 1.151-.101 1.623-.305.48-.211.904-.504 1.27-.879l1.355 2.088a4.133 4.133 0 01-.672.708 5.142 5.142 0 01-.976.622 5.96 5.96 0 01-1.27.452 6.177 6.177 0 01-1.55.183zm-.378-10.828c-.603 0-1.042.216-1.319.648-.268.43-.427 1.122-.476 2.075h3.455v-.318c-.016-.79-.147-1.387-.391-1.794-.244-.407-.667-.61-1.269-.61zm11.169 5.701l1.672-8.325h3.602L167.353 29h-3.296l-3.638-13.208h3.614l1.672 8.325zM176.228 29h-3.467V15.792h3.467V29zm-3.626-16.626c0-.269.045-.513.134-.732.09-.228.216-.424.379-.586.163-.163.358-.29.586-.379.236-.09.496-.134.781-.134.285 0 .541.045.769.134.236.09.435.216.598.379.163.162.289.358.379.586.089.22.134.463.134.732 0 .269-.045.517-.134.745-.09.22-.216.415-.379.586a1.671 1.671 0 01-.598.378c-.228.09-.484.134-.769.134-.285 0-.545-.045-.781-.134a1.693 1.693 0 01-.586-.378 1.865 1.865 0 01-.379-.586 2.03 2.03 0 01-.134-.745zm11.072 14.001c.48 0 .85-.146 1.111-.439.268-.301.407-.806.415-1.514h3.247c-.008.75-.135 1.424-.379 2.027a4.455 4.455 0 01-1.001 1.513 4.196 4.196 0 01-1.477.953 5.07 5.07 0 01-1.843.33c-.887 0-1.66-.143-2.319-.428a4.292 4.292 0 01-1.648-1.233c-.432-.545-.757-1.213-.977-2.002-.211-.79-.317-1.689-.317-2.698v-.952c0-1.009.106-1.908.317-2.698.22-.797.545-1.469.977-2.014.431-.545.976-.96 1.636-1.245.659-.285 1.428-.427 2.307-.427.708 0 1.351.114 1.928.342.586.22 1.083.549 1.49.988.415.432.732.969.952 1.612.228.643.346 1.387.354 2.234H185.2c-.008-.74-.131-1.31-.367-1.71-.236-.398-.626-.598-1.171-.598-.383 0-.688.078-.916.232-.22.155-.391.383-.513.684-.114.293-.191.66-.232 1.099-.032.431-.048.931-.048 1.501v.952c0 .578.016 1.087.048 1.526.033.431.106.794.22 1.087.122.293.297.512.525.659.228.146.537.22.928.22zm12.06 2.87c-.903 0-1.705-.14-2.404-.416a4.735 4.735 0 01-1.77-1.196c-.481-.521-.847-1.156-1.099-1.904-.244-.757-.366-1.616-.366-2.576v-1.087c0-1.074.118-2.014.354-2.82.244-.813.59-1.493 1.037-2.038a4.305 4.305 0 011.66-1.245c.66-.277 1.404-.415 2.234-.415 1.677 0 2.934.541 3.772 1.623.839 1.083 1.258 2.686 1.258 4.81v1.575h-6.873c.025.529.094.972.208 1.33.122.358.284.647.488.867.203.22.448.378.732.476.293.098.623.146.989.146.61 0 1.152-.101 1.624-.305.48-.211.903-.504 1.269-.879l1.355 2.088a4.163 4.163 0 01-.671.708 5.151 5.151 0 01-.977.622 5.95 5.95 0 01-1.269.452 6.185 6.185 0 01-1.551.183zm-.378-10.829c-.602 0-1.042.216-1.318.648-.269.43-.428 1.122-.476 2.075h3.454v-.318c-.016-.79-.146-1.387-.391-1.794-.244-.407-.667-.61-1.269-.61z" fill="#fff"/><path d="M70.947 44.96l1.29-4.3h1.517l-2.52 7.3c-.386 1.067-1.043 1.6-1.968 1.6a2.55 2.55 0 01-.686-.105v-1.102l.27.018c.359 0 .629-.066.808-.2.184-.128.328-.347.434-.655l.205-.545-2.227-6.31h1.536l1.341 4.3zm7.395.288l1.875-4.588h1.781V47h-1.424v-4.195L78.828 47h-.967l-1.752-4.219V47h-1.423v-6.34h1.792l1.864 4.588zM88.97 47h-1.424v-2.56H85.08V47h-1.424v-6.34h1.424v2.643h2.467V40.66h1.424V47zm3.052-4.324h1.395c.52 0 .973.09 1.36.27.386.179.679.431.878.755.203.324.305.701.305 1.131 0 .652-.23 1.176-.692 1.57-.46.395-1.074.594-1.84.598H90.6v-6.34h1.424v2.016zM98.44 47h-1.423v-6.34h1.423V47zm-6.416-3.182v2.045h1.39c.347 0 .62-.086.82-.258.203-.175.304-.423.304-.744 0-.32-.1-.572-.299-.755-.195-.188-.46-.284-.797-.288h-1.418zm10.916 3.3c-.902 0-1.634-.284-2.197-.85-.558-.57-.838-1.328-.838-2.274v-.176c0-.633.121-1.197.364-1.693.246-.5.589-.889 1.031-1.166a2.715 2.715 0 011.476-.416c.864 0 1.53.275 1.998.826.473.55.709 1.33.709 2.338v.574h-4.142c.043.524.217.938.521 1.242.309.305.696.457 1.16.457.653 0 1.184-.263 1.594-.79l.768.732a2.58 2.58 0 01-1.02.885c-.422.207-.896.31-1.424.31zm-.169-5.433c-.391 0-.708.137-.95.41-.238.274-.39.655-.457 1.143h2.713v-.105c-.031-.477-.158-.836-.381-1.078-.222-.246-.531-.37-.925-.37zm11.8.106h-2.056V47h-1.424v-5.209h-2.033v-1.13h5.513v1.13zm3.369 5.326c-.902 0-1.634-.283-2.197-.85-.558-.57-.838-1.328-.838-2.273v-.176c0-.633.121-1.197.364-1.693.246-.5.589-.889 1.031-1.166a2.715 2.715 0 011.476-.416c.864 0 1.53.275 1.998.826.473.55.709 1.33.709 2.338v.574h-4.142c.043.524.217.938.521 1.242.309.305.696.457 1.16.457.653 0 1.184-.263 1.594-.79l.768.732a2.58 2.58 0 01-1.02.885c-.422.207-.896.31-1.424.31zm-.169-5.431c-.391 0-.708.136-.95.41-.238.273-.39.654-.457 1.142h2.713v-.105c-.031-.477-.158-.836-.381-1.078-.222-.246-.531-.37-.925-.37zm6.099 1.06l1.207-2.086h1.582l-1.939 3.123L126.723 47h-1.571l-1.265-2.168-1.26 2.168h-1.582l2.004-3.217-1.934-3.123h1.571l1.183 2.086zM132.998 47h-1.424v-2.56h-2.467V47h-1.423v-6.34h1.423v2.643h2.467V40.66h1.424V47zm1.254-3.228c0-.622.123-1.18.369-1.676.246-.5.592-.883 1.037-1.149.446-.27.957-.404 1.535-.404.856 0 1.549.275 2.08.826.536.55.825 1.281.868 2.191l.005.334c0 .626-.121 1.184-.363 1.676a2.638 2.638 0 01-1.031 1.143c-.445.27-.961.404-1.547.404-.894 0-1.611-.297-2.15-.89-.535-.598-.803-1.393-.803-2.385v-.07zm1.424.123c0 .652.135 1.164.404 1.535.27.367.645.55 1.125.55.481 0 .854-.187 1.119-.562.27-.375.405-.924.405-1.646 0-.641-.139-1.149-.417-1.524a1.31 1.31 0 00-1.119-.563c-.464 0-.834.186-1.107.557-.274.367-.41.918-.41 1.653zm10.969-3.235V47h-1.424v-5.191h-1.793l-.117 2.209c-.075 1.062-.28 1.826-.616 2.29-.332.462-.841.692-1.529.692h-.439l-.006-1.184.293-.029c.312-.043.539-.232.679-.568.145-.34.237-.957.276-1.852l.117-2.707h4.559zm1.248 3.112c0-.622.123-1.18.369-1.676.246-.5.592-.883 1.037-1.149.445-.27.957-.404 1.535-.404.855 0 1.549.275 2.08.826.535.55.824 1.281.867 2.191l.006.334c0 .626-.121 1.184-.363 1.676a2.638 2.638 0 01-1.031 1.143c-.446.27-.961.404-1.547.404-.895 0-1.612-.297-2.151-.89-.535-.598-.802-1.393-.802-2.385v-.07zm1.423.123c0 .652.135 1.164.405 1.535.269.367.644.55 1.125.55.48 0 .853-.187 1.119-.562.269-.375.404-.924.404-1.646 0-.641-.139-1.149-.416-1.524a1.31 1.31 0 00-1.119-.563c-.465 0-.834.186-1.107.557-.274.367-.411.918-.411 1.653zm9.897-2.086h-2.754V47h-1.418v-6.34h4.172v1.149zm4.764-1.149h1.418V47h-1.418v-4.23L161.492 47h-1.418v-6.34h1.418v4.23l2.485-4.23zm6.89 0h1.418V47h-1.418v-4.23L168.383 47h-1.418v-6.34h1.418v4.23l2.484-4.23z" fill="#788891"/><path d="M32.067 13.867c1.128 0 2.081.727 2.44 1.733h8.986a2.596 2.596 0 012.44-1.733c1.434 0 2.6 1.166 2.6 2.6 0 1.433-1.166 2.6-2.6 2.6a2.597 2.597 0 01-2.44-1.734h-8.987a2.597 2.597 0 01-2.44 1.733 2.603 2.603 0 01-2.6-2.6c0-1.433 1.167-2.6 2.6-2.6zm13.866 3.466a.868.868 0 000-1.733.867.867 0 000 1.733zm-13.866 0a.868.868 0 10-.002-1.735.868.868 0 00.002 1.735z" fill="#00B2FF"/><path d="M25.133 19.226v-5.36c0-.23.091-.45.254-.612l3.467-3.467a.864.864 0 01.613-.254h2.76a2.596 2.596 0 012.44-1.733c1.433 0 2.6 1.166 2.6 2.6 0 1.433-1.167 2.6-2.6 2.6a2.596 2.596 0 01-2.44-1.733h-2.402l-2.958 2.958v5a2.596 2.596 0 011.733 2.441c0 1.434-1.167 2.6-2.6 2.6a2.603 2.603 0 01-2.6-2.6c0-1.128.727-2.081 1.733-2.44zm9.534-7.96a.868.868 0 10-.002-1.735.868.868 0 00.002 1.736zM26 22.534a.867.867 0 10-.002-1.735.867.867 0 00.002 1.735zm-16.467-.001c.4 0 .775.098 1.114.26l1.486-1.485V13c0-.23.091-.45.254-.613l8.674-8.673A2.556 2.556 0 0120.8 2.6c0-1.433 1.166-2.6 2.6-2.6C24.834 0 26 1.167 26 2.6s-1.166 2.6-2.6 2.6c-.4 0-.775-.098-1.114-.261l-8.42 8.42v8.307c0 .23-.09.451-.253.613l-1.74 1.74c.162.34.26.714.26 1.114 0 1.433-1.166 2.6-2.6 2.6a2.603 2.603 0 01-2.6-2.6c0-1.433 1.167-2.6 2.6-2.6zM23.4 3.467a.868.868 0 000-1.734.868.868 0 000 1.734zM9.533 26a.868.868 0 10-.001-1.735A.868.868 0 009.533 26zm-7.8-13.707V8.667c0-.231.091-.451.254-.613l6.067-6.067a.864.864 0 01.613-.254h4.492A2.597 2.597 0 0115.6 0c1.433 0 2.6 1.167 2.6 2.6s-1.167 2.6-2.6 2.6a2.597 2.597 0 01-2.44-1.733H9.024L3.467 9.025v3.268a2.596 2.596 0 011.733 2.44c0 1.433-1.167 2.6-2.6 2.6a2.603 2.603 0 01-2.6-2.6c0-1.128.727-2.082 1.733-2.44zM15.6 3.467a.867.867 0 10-.002-1.735.867.867 0 00.002 1.735zM2.6 15.6a.867.867 0 10-.002-1.735A.867.867 0 002.6 15.6zm11.266 31.36V34.507a2.597 2.597 0 01-1.733-2.44c0-1.434 1.167-2.6 2.6-2.6 1.129 0 2.082.726 2.44 1.733h8.986a2.597 2.597 0 012.441-1.734c1.128 0 2.082.727 2.44 1.733h5.001l3.22-3.22A2.557 2.557 0 0139 26.867c0-1.433 1.166-2.6 2.6-2.6 1.433 0 2.6 1.167 2.6 2.6 0 1.434-1.167 2.6-2.6 2.6-.4 0-.775-.098-1.114-.26l-3.473 3.473a.864.864 0 01-.613.254h-5.36a2.597 2.597 0 01-2.44 1.733 2.597 2.597 0 01-2.44-1.733h-8.987a2.598 2.598 0 01-1.574 1.574V46.96a2.596 2.596 0 011.733 2.44c0 1.434-1.166 2.6-2.6 2.6a2.603 2.603 0 01-2.6-2.6c0-1.128.728-2.082 1.734-2.44zM41.6 27.732a.867.867 0 10-.002-1.735.867.867 0 00.002 1.735zm-13 5.2a.868.868 0 10-.002-1.735.868.868 0 00.002 1.735zM14.733 50.266a.868.868 0 000-1.733.868.868 0 000 1.733zm0-17.333a.868.868 0 000-1.733.868.868 0 000 1.733z" fill="#00B2FF"/><path d="M18.2 17.492v-2.759c0-.23.091-.45.254-.613L28.86 3.714A2.556 2.556 0 0128.6 2.6c0-1.433 1.166-2.6 2.6-2.6 1.128 0 2.082.727 2.44 1.733h3.627c.478 0 .866.388.866.867v2.241l3.22 3.22a2.556 2.556 0 011.114-.261c1.433 0 2.6 1.166 2.6 2.6 0 1.433-1.167 2.6-2.6 2.6a2.603 2.603 0 01-2.6-2.6c0-.4.098-.775.26-1.114l-3.473-3.473A.863.863 0 0136.4 5.2V3.467h-2.76A2.596 2.596 0 0131.2 5.2c-.4 0-.775-.098-1.114-.261L19.933 15.092v2.4a2.596 2.596 0 011.734 2.441c0 1.433-1.167 2.6-2.6 2.6a2.603 2.603 0 01-2.6-2.6c0-1.128.727-2.082 1.733-2.44zm24.267-6.226a.868.868 0 10-.002-1.735.868.868 0 00.002 1.736zM31.2 3.467a.868.868 0 000-1.733.868.868 0 000 1.734zM19.067 20.8a.868.868 0 10-.002-1.735.868.868 0 00.002 1.735z" fill="#00B2FF"/><path d="M20.8 24.266c1.128 0 2.082.727 2.44 1.734h10.201l4.946-4.946A.864.864 0 0139 20.8h9.175l2.092-2.092v-7.083L43.58 4.94c-.338.163-.713.26-1.113.26a2.603 2.603 0 01-2.6-2.599c0-1.433 1.166-2.6 2.6-2.6 1.433 0 2.6 1.167 2.6 2.6 0 .4-.098.775-.261 1.114l6.94 6.94a.863.863 0 01.254.613v7.8c0 .23-.091.45-.254.612l-2.6 2.6a.864.864 0 01-.613.254H39.36l-4.946 4.946a.864.864 0 01-.613.254H23.24a2.596 2.596 0 01-2.44 1.733 2.603 2.603 0 01-2.6-2.6c0-1.433 1.166-2.6 2.6-2.6zM42.467 1.733a.868.868 0 10.001 1.735.868.868 0 00-.001-1.735zm-21.667 26a.868.868 0 000-1.733.868.868 0 000 1.733zM2.6 20.8c.4 0 .775.098 1.114.26l3.22-3.219v-5A2.596 2.596 0 015.2 10.4c0-1.434 1.167-2.6 2.6-2.6s2.6 1.166 2.6 2.6a2.596 2.596 0 01-1.733 2.44v5.36c0 .23-.091.45-.254.613l-3.474 3.473c.163.339.261.713.261 1.114a2.597 2.597 0 01-1.733 2.44v.668l6.679 6.679a.863.863 0 01.254.613v1.026a2.596 2.596 0 011.733 2.44 2.596 2.596 0 01-1.733 2.44v2.054a2.596 2.596 0 011.733 2.44c0 1.434-1.166 2.6-2.6 2.6a2.603 2.603 0 01-2.6-2.6c0-1.128.727-2.082 1.734-2.44v-2.053a2.596 2.596 0 01-1.734-2.44c0-1.13.727-2.083 1.734-2.441v-.668l-6.68-6.679a.863.863 0 01-.254-.613V25.84A2.597 2.597 0 010 23.4c0-1.434 1.167-2.6 2.6-2.6zm5.2-9.534a.867.867 0 10-.002-1.734.867.867 0 00.002 1.735zm1.733 33.8a.868.868 0 000-1.733.867.867 0 000 1.733zm0-6.933a.868.868 0 000-1.733.867.867 0 000 1.733zM2.6 24.266a.867.867 0 10-.002-1.735.867.867 0 00.002 1.735z" fill="#00B2FF"/></svg>